<?xml version="1.0" standalone="no"?>
<!DOCTYPE svg PUBLIC "-//W3C//DTD SVG 20010904//EN"
 "http://www.w3.org/TR/2001/REC-SVG-20010904/DTD/svg10.dtd">
<svg version="1.0" xmlns="http://www.w3.org/2000/svg"
 width="161.000000pt" height="99.000000pt" viewBox="0 0 161.000000 99.000000"
 preserveAspectRatio="xMidYMid meet">

<g transform="translate(0.000000,99.000000) scale(0.100000,-0.100000)"
fill="#000000" stroke="none">
<path d="M0 495 l0 -495 805 0 805 0 0 495 0 495 -805 0 -805 0 0 -495z m1268
273 c2 -54 1 -98 -3 -98 -3 0 -30 18 -59 40 l-53 40 -311 0 -312 0 0 -35 c0
-34 5 -38 130 -122 72 -47 128 -88 126 -90 -3 -3 -247 55 -408 98 l-38 10 0
129 0 130 463 -2 462 -3 3 -97z m-218 -281 l215 -63 0 -150 0 -149 -460 0
-460 0 -3 103 c-1 56 0 102 3 102 4 0 33 -20 65 -45 l58 -45 307 0 306 0 -3
63 -3 62 -106 75 c-58 41 -116 83 -130 92 -13 9 -19 17 -14 17 6 0 107 -28
225 -62z"/>
</g>
</svg>
