<svg width="102" height="50" viewBox="0 0 102 50" fill="none" xmlns="http://www.w3.org/2000/svg">
<g clip-path="url(#clip0)">
<path d="M101.678 7.42167C98.2913 6.50783 95.5556 3.76632 94.6437 0.372065C94.5135 0.110968 94.2529 -0.0195801 93.9924 0.110968C93.8621 0.110968 93.7319 0.241516 93.7319 0.372065C92.82 3.76632 90.0844 6.50783 86.6974 7.42167C86.4369 7.55222 86.3066 7.81332 86.4368 8.07441C86.4368 8.20496 86.5671 8.33551 86.6974 8.33551C90.0844 9.3799 92.82 11.9909 93.7319 15.3851C93.8621 15.6462 94.1227 15.7768 94.3832 15.6462C94.5135 15.6462 94.6437 15.5157 94.6437 15.3851C95.5556 11.9909 98.2913 9.24935 101.678 8.33551C101.939 8.20496 102.069 7.94387 101.939 7.68277C101.939 7.55222 101.808 7.42167 101.678 7.42167Z" fill="#F6A733"/>
<path d="M90.5364 19.8225V25.436C90.5364 25.9582 90.1456 26.3499 89.6245 26.3499C89.4942 26.3499 89.2337 26.3499 89.1034 26.2193C87.6705 25.436 86.1073 25.0444 84.4138 25.1749C82.9808 25.1749 81.5479 25.436 80.2452 25.9582C79.5939 26.2193 78.8122 26.0888 78.2912 25.436C74.3831 20.0836 68.1303 17.081 61.6168 17.081C56.0153 17.081 50.5441 19.3003 46.636 23.3473C46.2452 23.7389 45.7241 23.8695 45.2031 23.7389C44.1609 23.4778 42.9885 23.3473 41.9464 23.3473C38.8199 23.3473 35.6935 24.6528 33.3487 26.8721C32.8276 27.3943 32.046 27.6554 31.3946 27.3943C26.9655 25.436 21.8851 25.436 17.3257 27.1332C16.6743 27.3943 15.7625 27.1332 15.3716 26.611C13.1571 23.6084 8.72797 21.5196 3.64751 21.5196C2.73564 21.5196 1.82375 21.5196 0.911873 21.6501C0.390801 21.7807 0 21.389 0 20.8669V20.7363V19.8225C0 11.0757 20.3218 4.02612 45.2031 4.02612C70.2145 4.02612 90.5364 11.0757 90.5364 19.8225Z" fill="#2D2E7F"/>
<path d="M10.9425 32.2651C10.1609 32.2651 9.37931 32.7873 9.24904 33.5706L6.77394 42.3173L3.90805 32.2651H0L4.9502 46.4948H8.72797L13.6782 32.2651H10.9425Z" fill="#2D2E7F"/>
<path d="M25.0114 32.265C24.4904 32.265 24.0996 32.3956 23.7088 32.7872C23.318 33.1788 23.1877 33.5705 23.1877 34.0927V41.4034C23.1877 42.0561 22.9271 42.8394 22.4061 43.2311C21.885 43.6227 21.3639 43.8838 20.7126 43.7533C20.0613 43.7533 19.5402 43.4922 19.0191 43.2311C18.498 42.7089 18.2375 42.0561 18.2375 41.2728V32.1345H14.4597V40.4896C14.4597 42.97 15.1111 44.5366 16.4137 45.3198C17.7164 46.1031 19.1494 46.4948 20.5823 46.6253C22.1455 46.6253 23.5785 46.2337 24.8812 45.4504C26.1839 44.6671 26.8352 42.97 26.8352 40.4896V32.265H25.0114Z" fill="#2D2E7F"/>
<path d="M52.8889 33.1789C51.5862 32.3956 50.1532 32.004 48.59 32.004C47.1571 32.004 45.5938 32.5262 44.4214 33.3094C43.1187 34.0927 42.4674 35.7899 42.4674 38.1397V46.4948H46.2452V37.487C46.2452 36.8343 46.5057 36.051 47.0268 35.6593C47.5479 35.2677 48.0689 35.0066 48.7203 35.1371C49.3716 35.1371 50.023 35.3982 50.4138 35.6593C50.9348 36.1815 51.1954 36.8343 51.1954 37.487V44.6671C51.1954 45.1893 51.3256 45.7115 51.7164 45.9726C52.1073 46.3643 52.4981 46.4948 53.0191 46.4948H54.8429V38.1397C54.8429 35.6593 54.1915 33.9622 52.8889 33.1789Z" fill="#2D2E7F"/>
<path d="M64.8735 42.3172C64.3524 43.1005 63.3103 43.6227 62.3984 43.6227C61.6168 43.6227 60.8352 43.3616 60.3141 42.7089C59.793 42.0561 59.5325 41.1423 59.5325 40.2285H67.2183C67.9999 40.359 68.7815 39.7063 68.7815 38.923C68.7815 38.7924 68.7815 38.7924 68.7815 38.6619C68.7815 36.8342 68.1302 35.1371 67.088 33.7011C65.7854 32.3956 63.9616 31.6123 62.1379 31.7428C60.3141 31.6123 58.6206 32.3956 57.4482 33.7011C56.2758 35.2676 55.6245 37.0953 55.7547 39.0535C55.6245 41.0118 56.2758 42.97 57.4482 44.5366C58.6206 45.842 60.4444 46.6253 62.1379 46.4948C63.5708 46.4948 65.134 46.1031 66.3064 45.3199C67.4789 44.5366 68.2605 43.2311 68.521 41.9256H65.9156C65.5248 42.0561 65.134 42.0561 64.8735 42.3172ZM60.3141 35.7898C60.8352 35.2676 61.4865 35.0065 62.2681 35.0065C63.0497 35.0065 63.7011 35.2676 64.2221 35.7898C64.7432 36.4426 65.0038 37.0953 65.0038 37.8786H59.5325C59.5325 37.0953 59.793 36.312 60.3141 35.7898Z" fill="#2D2E7F"/>
<path d="M88.5824 33.1789C87.2797 32.3956 85.8468 32.004 84.2835 32.004C83.5019 32.004 82.7203 32.1345 82.069 32.3956C81.4176 32.5262 80.7663 32.9178 80.115 33.44C79.4636 32.9178 78.8123 32.5262 78.0307 32.3956C77.2491 32.2651 76.4674 32.1345 75.6858 32.1345C74.2529 32.1345 72.6897 32.6567 71.5173 33.44C70.2146 34.2233 69.5632 35.9204 69.5632 38.2703V46.6254H73.341V37.487C73.341 36.8343 73.6015 36.051 74.1226 35.6593C74.3832 35.1371 75.0345 34.876 75.5556 34.876C76.2069 34.876 76.8583 35.1371 77.2491 35.3982C77.7701 35.9204 78.0307 36.5732 78.0307 37.2259V46.3643H81.6782V37.2259C81.6782 36.5732 81.9387 35.7899 82.4598 35.3982C83.5019 34.6149 84.9349 34.6149 85.977 35.3982C86.4981 35.9204 86.7586 36.5732 86.7586 37.2259V44.5366C86.7586 45.4504 87.41 46.3643 88.4521 46.3643H88.5824H90.4061V38.0092C90.5364 35.5288 89.8851 33.9622 88.5824 33.1789Z" fill="#2D2E7F"/>
<path d="M66.6973 31.3512C64.092 29.393 60.5747 29.393 57.9694 31.3512C57.5786 30.3068 57.9694 29.1319 58.8813 28.6097C60.9655 27.0431 63.8314 27.0431 65.9157 28.6097C66.6973 29.1319 67.0882 30.3068 66.6973 31.3512Z" fill="#2D2E7F"/>
<path d="M64.8736 47.9308C64.613 49.3669 63.1801 50.2807 61.7471 50.0196C60.705 49.7585 59.9234 48.9752 59.6628 47.9308C61.3563 48.3225 63.1801 48.3225 64.8736 47.9308Z" fill="#2D2E7F"/>
<path d="M38.1686 32.9178C36.8659 32.1345 35.3027 31.7428 33.7394 31.8734C32.3065 31.7428 30.8735 32.265 29.5709 33.0483C28.7892 33.701 28.1379 34.7454 28.1379 35.7898H31.6552C31.7854 35.3982 32.1762 35.1371 32.567 35.0065C33.0881 34.876 33.6092 34.876 34.1302 34.876C35.954 34.876 36.2145 35.6593 36.2145 36.1815C36.2145 36.8342 35.4329 37.3564 33.8697 37.6175C32.1762 37.748 30.4827 38.2702 29.0498 39.0535C28.1379 39.8368 27.6168 41.0118 27.7471 42.3172C27.6168 43.6227 28.1379 44.9282 29.1801 45.7115C30.2222 46.3642 31.3946 46.7559 32.567 46.7559C34.1302 46.7559 35.5632 46.2337 36.7356 45.1893C37.1264 45.9726 37.908 46.4948 38.8199 46.4948H39.7318V40.0979V35.7898C39.862 34.7454 39.2107 33.5705 38.1686 32.9178ZM36.3448 40.6201C36.4751 42.1867 35.3027 43.6227 33.6092 43.8838C33.4789 43.8838 33.2184 43.8838 33.0881 43.8838C32.567 43.8838 32.046 43.7533 31.6552 43.4922C31.2643 43.1005 31.1341 42.7089 31.1341 42.1867C31.1341 41.795 31.2643 41.4034 31.5249 41.0118C31.9157 40.6201 32.4368 40.359 32.9578 40.359L34.1302 40.0979C34.9118 39.9674 35.5632 39.7063 36.2145 39.4452L36.3448 40.6201Z" fill="#2D2E7F"/>
<path d="M94.1839 43.4517C94.9655 43.4517 95.6168 44.1044 95.6168 44.8877C95.6168 45.671 94.9655 46.3238 94.1839 46.3238C93.4022 46.3238 92.7509 45.671 92.7509 44.8877C92.7509 44.1044 93.4022 43.4517 94.1839 43.4517ZM94.1839 43.0601C93.1417 43.0601 92.3601 43.8433 92.3601 44.8877C92.3601 45.9321 93.1417 46.7154 94.1839 46.7154C95.226 46.7154 96.0076 45.9321 96.0076 44.8877C96.0076 43.8433 95.226 43.0601 94.1839 43.0601Z" fill="#2D2E7F"/>
<path d="M93.517 45.6044V44.1684C93.517 44.0378 93.6472 44.0378 93.6472 44.0378H94.2986C94.4288 44.0378 94.5591 44.0378 94.6894 44.1684C94.8196 44.2989 94.8196 44.4295 94.8196 44.56C94.8196 44.6906 94.8196 44.6906 94.8196 44.8211L94.6894 44.9517C94.6894 44.9517 94.8196 44.9517 94.8196 45.0822C94.8196 45.2128 94.8196 45.2128 94.8196 45.3433V45.4739V45.6044H94.4288C94.4288 45.6044 94.4288 45.6044 94.4288 45.4739V45.3433V45.2128C94.4288 45.0822 94.4288 45.0822 94.4288 44.9517H94.2986H93.9078V45.6044H93.517ZM93.9078 44.6906H94.2986C94.4288 44.6906 94.4288 44.6906 94.4288 44.6906C94.5591 44.56 94.5591 44.4295 94.4288 44.4295H94.2986H93.9078V44.6906Z" fill="#2D2E7F"/>
</g>
<defs>
<clipPath id="clip0">
<rect width="102" height="50" fill="white"/>
</clipPath>
</defs>
</svg>
