<svg width="78" height="39" viewBox="0 0 78 39" fill="none" xmlns="http://www.w3.org/2000/svg">
<path d="M77.6444 5.63786C76.363 5.27395 75.1961 4.58783 74.2551 3.64493C73.3141 2.70202 72.6304 1.53377 72.2691 0.251587C72.2398 0.177388 72.1888 0.11373 72.1228 0.0688644C72.0568 0.0239989 71.9789 0 71.8991 0C71.8193 0 71.7414 0.0239989 71.6754 0.0688644C71.6094 0.11373 71.5585 0.177388 71.5291 0.251587C71.1678 1.53377 70.4841 2.70202 69.5431 3.64493C68.6021 4.58783 67.4353 5.27395 66.1538 5.63786C66.0769 5.66203 66.0096 5.71012 65.9619 5.77514C65.9142 5.84016 65.8884 5.91872 65.8884 5.99938C65.8884 6.08004 65.9142 6.15859 65.9619 6.22361C66.0096 6.28862 66.0769 6.33672 66.1538 6.36088C67.4327 6.73011 68.5963 7.41931 69.5348 8.36333C70.4733 9.30736 71.1556 10.4751 71.5172 11.7561C71.5479 11.8323 71.6007 11.8975 71.6687 11.9435C71.7368 11.9894 71.817 12.014 71.8991 12.014C71.9812 12.014 72.0614 11.9894 72.1295 11.9435C72.1976 11.8975 72.2503 11.8323 72.281 11.7561C72.6426 10.475 73.3249 9.30727 74.2633 8.36323C75.2018 7.41919 76.3655 6.73003 77.6444 6.36088C77.7214 6.33672 77.7886 6.28862 77.8363 6.22361C77.8841 6.15859 77.9098 6.08004 77.9098 5.99938C77.9098 5.91872 77.8841 5.84016 77.8363 5.77514C77.7886 5.71012 77.7214 5.66203 77.6444 5.63786Z" fill="#F6A733"/>
<path d="M69.0892 15.122V19.3984C69.0916 19.5265 69.0603 19.653 68.9985 19.7652C68.9367 19.8774 68.8465 19.9714 68.737 20.0379C68.6275 20.1043 68.5024 20.1408 68.3743 20.1438C68.2463 20.1468 68.1197 20.1161 68.0072 20.0548C66.9098 19.4808 65.686 19.1915 64.4478 19.2134C63.3594 19.2007 62.2808 19.4194 61.2833 19.8549C61.033 19.9676 60.7513 19.9896 60.4867 19.917C60.222 19.8444 59.9909 19.6817 59.8333 19.4571C58.3668 17.4653 56.4477 15.8507 54.2343 14.7466C52.021 13.6425 49.5768 13.0806 47.1035 13.1071C44.9724 13.0912 42.8601 13.5076 40.8944 14.331C38.9286 15.1543 37.1502 16.3677 35.6666 17.8977C35.5259 18.0454 35.3489 18.1537 35.1533 18.2116C34.9577 18.2695 34.7503 18.2751 34.5518 18.2279C33.7327 18.0397 32.8949 17.9456 32.0546 17.9474C30.8458 17.8857 29.6376 18.0796 28.5088 18.5164C27.38 18.9532 26.3561 19.6231 25.5037 20.4824C25.3322 20.6967 25.0947 20.8482 24.8282 20.9137C24.5617 20.9792 24.2811 20.9548 24.0298 20.8444C22.3425 20.1157 20.5278 19.7272 18.69 19.7013C16.8521 19.6753 15.0272 20.0124 13.32 20.6933C13.056 20.8035 12.7623 20.8199 12.4877 20.7397C12.2132 20.6596 11.9744 20.4877 11.8113 20.2527C10.1514 17.9285 6.74622 16.3353 2.81492 16.3353C2.12532 16.3347 1.4366 16.3845 0.754291 16.4845C0.660741 16.4983 0.565316 16.4916 0.474569 16.4651C0.383823 16.4385 0.299907 16.3926 0.228574 16.3305C0.157242 16.2684 0.100184 16.1917 0.0613223 16.1055C0.0224605 16.0193 0.00271494 15.9257 0.00343709 15.8311V15.122C0.00343709 8.46775 15.4681 3.07251 34.5448 3.07251H34.5538C53.6275 3.0735 69.0892 8.46974 69.0892 15.122Z" fill="white"/>
<path d="M8.3907 24.535C8.09373 24.5204 7.80102 24.6102 7.56327 24.7887C7.32551 24.9672 7.1577 25.2233 7.08889 25.5126L5.17246 32.1529L3.01338 24.535H0L3.7881 35.3702H6.67815L10.507 24.535H8.3907Z" fill="white"/>
<path d="M19.1385 24.5348C18.9535 24.5291 18.7693 24.5624 18.598 24.6325C18.4266 24.7025 18.272 24.8078 18.144 24.9416C18.0185 25.0709 17.9199 25.2238 17.8538 25.3914C17.7878 25.559 17.7556 25.738 17.7591 25.9182V31.4586C17.7818 31.7265 17.7394 31.9959 17.6355 32.2439C17.5316 32.4918 17.3693 32.711 17.1624 32.8827C16.784 33.1764 16.3177 33.3341 15.8387 33.3303C15.3652 33.336 14.9042 33.1779 14.5339 32.8827C14.3345 32.7063 14.1792 32.4856 14.0808 32.2382C13.9823 31.9908 13.9433 31.7238 13.967 31.4586V24.5348H11.1147V30.8887C11.1147 32.7637 11.5971 33.9992 12.5618 34.5953C13.5238 35.1932 14.6252 35.5299 15.7571 35.5719C16.9183 35.5819 18.0599 35.2723 19.0569 34.6768C20.062 34.0801 20.5643 32.8174 20.5636 30.8887V24.5348H19.1385Z" fill="white"/>
<path d="M40.4024 25.2595C39.4138 24.6402 38.2691 24.3156 37.1026 24.3236C35.9651 24.3688 34.8611 24.7207 33.9072 25.342C32.9432 25.9692 32.4609 27.2047 32.4602 29.0486V35.3707H35.3125V28.4787C35.2893 28.2133 35.3287 27.9461 35.4277 27.6987C35.5267 27.4514 35.6824 27.2307 35.8823 27.0545C36.2513 26.759 36.7114 26.6008 37.1841 26.607C37.6631 26.6033 38.1294 26.7609 38.5078 27.0545C38.7141 27.2267 38.876 27.446 38.9799 27.6939C39.0837 27.9417 39.1265 28.2109 39.1045 28.4787V33.9843C39.0967 34.1739 39.127 34.3631 39.1936 34.5408C39.2603 34.7184 39.3618 34.8809 39.4924 35.0186C39.6249 35.1428 39.7817 35.2382 39.9528 35.299C40.1239 35.3597 40.3058 35.3845 40.4869 35.3717H41.915V29.0496C41.913 27.148 41.4088 25.8847 40.4024 25.2595Z" fill="white"/>
<path d="M49.5588 32.231C49.3478 32.5471 49.0588 32.8034 48.7198 32.9751C48.3807 33.1469 48.0032 33.2283 47.6235 33.2116C47.3258 33.2337 47.0271 33.1862 46.7509 33.073C46.4748 32.9598 46.2287 32.7839 46.0323 32.5592C45.6097 32.0283 45.3936 31.3624 45.4236 30.6845H51.2704C51.4329 30.702 51.5973 30.6839 51.7521 30.6313C51.9069 30.5787 52.0484 30.493 52.1666 30.3802C52.2849 30.2673 52.3771 30.13 52.4369 29.9778C52.4966 29.8256 52.5224 29.6622 52.5125 29.4991C52.5179 28.1391 52.0587 26.818 51.2107 25.7547C50.7216 25.2527 50.1301 24.8619 49.4764 24.6089C48.8227 24.356 48.1222 24.2468 47.4226 24.2888C46.7443 24.2529 46.0666 24.3697 45.4394 24.6304C44.8122 24.8912 44.2515 25.2893 43.7986 25.7955C42.8946 26.9553 42.4451 28.4052 42.5346 29.873C42.4347 31.3842 42.8985 32.8787 43.8364 34.0679C44.2898 34.5745 44.8511 34.9729 45.479 35.2337C46.107 35.4945 46.7854 35.611 47.4644 35.5745C48.597 35.6179 49.7127 35.2892 50.6408 34.6387C51.5075 34.0051 52.1155 33.0792 52.3524 32.0321H50.3166C50.1834 32.0127 50.0477 32.0203 49.9175 32.0544C49.7873 32.0886 49.6653 32.1487 49.5588 32.231ZM46.0352 27.2236C46.2284 27.0336 46.4583 26.885 46.7109 26.787C46.9635 26.6891 47.2334 26.6437 47.5041 26.6538C47.7814 26.6359 48.0592 26.6775 48.3191 26.7758C48.579 26.8741 48.8148 27.0267 49.0108 27.2236C49.3782 27.6873 49.5793 28.261 49.5817 28.8526H45.4276C45.4133 28.2514 45.6308 27.6678 46.0352 27.2226V27.2236Z" fill="white"/>
<path d="M67.5811 25.2249C66.5937 24.6053 65.4499 24.2806 64.2842 24.2891C63.6987 24.3153 63.1176 24.404 62.5508 24.5536C62.018 24.6917 61.5235 24.9491 61.1048 25.3065C60.6349 24.9086 60.0762 24.6296 59.4758 24.493C58.8751 24.3564 58.2609 24.2877 57.6449 24.2881C56.5062 24.3323 55.4007 24.6838 54.4456 25.3055C53.4816 25.9327 52.9992 27.1682 52.9985 29.012V35.3689H55.8508V28.4422C55.8277 28.1767 55.8673 27.9094 55.9665 27.6621C56.0657 27.4147 56.2216 27.1941 56.4217 27.018C56.7915 26.722 57.2528 26.5638 57.7264 26.5705C58.2054 26.5668 58.6717 26.7245 59.0501 27.018C59.2545 27.1915 59.4145 27.4111 59.5169 27.6588C59.6193 27.9065 59.6611 28.1751 59.6389 28.4422V35.3689H62.4504V28.4422C62.4274 28.175 62.4689 27.9062 62.5713 27.6584C62.6738 27.4106 62.8342 27.191 63.0391 27.018C63.4194 26.7278 63.8845 26.5706 64.3628 26.5706C64.8412 26.5706 65.3062 26.7278 65.6865 27.018C65.8928 27.1902 66.0547 27.4095 66.1585 27.6573C66.2624 27.9052 66.3052 28.1743 66.2832 28.4422V33.9826C66.2749 34.1666 66.305 34.3503 66.3715 34.5221C66.4381 34.6939 66.5396 34.8499 66.6697 34.9803C66.7998 35.1107 66.9557 35.2126 67.1273 35.2795C67.2989 35.3464 67.4826 35.3769 67.6666 35.3689H69.0937V29.012C69.0917 27.1125 68.5875 25.8501 67.5811 25.2249Z" fill="white"/>
<path d="M50.8841 23.8665C49.9163 23.1458 48.7423 22.7557 47.5357 22.7539C46.3291 22.7521 45.1539 23.1387 44.1841 23.8565C44.032 23.4786 44.0169 23.0594 44.1413 22.6714C44.2657 22.2835 44.5218 21.9513 44.8653 21.7323C45.6268 21.1319 46.5683 20.8054 47.538 20.8054C48.5078 20.8054 49.4493 21.1319 50.2108 21.7323C50.5565 21.9516 50.8136 22.2861 50.9368 22.6765C51.06 23.067 51.0413 23.4884 50.8841 23.8665Z" fill="white"/>
<path d="M49.5106 36.4919C49.4189 36.945 49.1733 37.3525 48.8155 37.6451C48.4577 37.9378 48.0097 38.0977 47.5474 38.0977C47.0851 38.0977 46.6371 37.9378 46.2793 37.6451C45.9215 37.3525 45.6759 36.945 45.5842 36.4919C46.8746 36.8027 48.2202 36.8027 49.5106 36.4919Z" fill="white"/>
<path d="M29.1835 25.0637C28.1428 24.4773 26.9533 24.208 25.7614 24.289C24.6379 24.2155 23.5252 24.5476 22.6257 25.2248C21.9884 25.7411 21.5789 26.4866 21.485 27.3014H24.214C24.2745 27.1602 24.3637 27.0331 24.4761 26.9283C24.5884 26.8236 24.7213 26.7433 24.8664 26.6927C25.2626 26.5786 25.6734 26.5233 26.0856 26.5286C27.478 26.5286 27.6769 27.0995 27.6769 27.5053C27.6769 28.0503 27.0802 28.4003 25.8867 28.5644C24.581 28.6279 23.3126 29.0202 22.1991 29.7051C21.8473 30.0015 21.573 30.379 21.3997 30.805C21.2265 31.2311 21.1595 31.6929 21.2046 32.1506C21.1576 32.645 21.2335 33.1433 21.4253 33.6013C21.6172 34.0593 21.9192 34.4628 22.3045 34.7761C23.0517 35.311 23.9517 35.59 24.8703 35.5717C25.4492 35.5955 26.027 35.5029 26.5694 35.2992C27.1118 35.0956 27.6077 34.7851 28.0279 34.3863C28.1624 34.6954 28.3888 34.9556 28.6764 35.1315C28.9639 35.3075 29.2986 35.3907 29.6351 35.3698H30.366V30.5763V27.3431C30.3821 26.8935 30.2816 26.4474 30.0744 26.048C29.8672 25.6486 29.5604 25.3096 29.1835 25.0637ZM27.7176 30.9313C27.7467 31.2597 27.7035 31.5904 27.5908 31.9002C27.4782 32.2099 27.2989 32.4912 27.0657 32.7241C26.8325 32.9571 26.551 33.136 26.2411 33.2482C25.9312 33.3605 25.6004 33.4034 25.2721 33.3739C24.8911 33.4007 24.5137 33.2851 24.213 33.0497C24.0887 32.9204 23.9921 32.7671 23.9292 32.5991C23.8662 32.4312 23.8383 32.2522 23.847 32.0731C23.8341 31.7508 23.9343 31.4341 24.1304 31.178C24.422 30.8987 24.7912 30.7143 25.1896 30.6489L26.1284 30.45C26.6762 30.3306 27.2096 30.1529 27.7196 29.9199L27.7176 30.9313Z" fill="white"/>
<path d="M71.8977 33.0733C72.1141 33.0733 72.3255 33.1374 72.5055 33.2576C72.6854 33.3778 72.8256 33.5487 72.9084 33.7486C72.9912 33.9485 73.0128 34.1684 72.9706 34.3806C72.9284 34.5929 72.8242 34.7878 72.6712 34.9408C72.5182 35.0938 72.3233 35.198 72.1111 35.2402C71.8989 35.2824 71.6789 35.2607 71.479 35.1779C71.2791 35.0951 71.1083 34.9549 70.9881 34.775C70.8679 34.5951 70.8037 34.3836 70.8037 34.1672C70.8037 34.0236 70.832 33.8813 70.887 33.7486C70.942 33.6159 71.0225 33.4953 71.1241 33.3937C71.2257 33.2921 71.3463 33.2115 71.479 33.1565C71.6118 33.1016 71.754 33.0733 71.8977 33.0733ZM71.8977 32.761C71.6198 32.761 71.3481 32.8434 71.117 32.9978C70.8859 33.1522 70.7058 33.3717 70.5994 33.6285C70.493 33.8853 70.4652 34.1678 70.5194 34.4404C70.5737 34.713 70.7075 34.9634 70.904 35.1599C71.1006 35.3564 71.3509 35.4903 71.6235 35.5445C71.8961 35.5987 72.1787 35.5709 72.4354 35.4645C72.6922 35.3582 72.9117 35.178 73.0661 34.947C73.2205 34.7159 73.3029 34.4442 73.3029 34.1663C73.3029 33.7936 73.1549 33.4361 72.8914 33.1726C72.6278 32.9091 72.2704 32.761 71.8977 32.761Z" fill="white"/>
<path d="M71.394 34.7783V33.6843C71.3939 33.6675 71.3971 33.6507 71.4035 33.6351C71.4099 33.6195 71.4194 33.6053 71.4313 33.5933C71.4433 33.5814 71.4575 33.5719 71.4731 33.5655C71.4887 33.5591 71.5055 33.5559 71.5223 33.556H71.9888C72.0953 33.5469 72.2016 33.5773 72.2871 33.6416C72.3216 33.675 72.3484 33.7155 72.3656 33.7603C72.3828 33.8052 72.3899 33.8532 72.3866 33.9011C72.3892 33.9677 72.3719 34.0335 72.3368 34.0901C72.3052 34.1384 72.2571 34.1737 72.2016 34.1895C72.249 34.2029 72.2897 34.2334 72.316 34.2751C72.3422 34.3321 72.3555 34.3943 72.3547 34.4571L72.3617 34.6032V34.65C72.3606 34.6652 72.3606 34.6805 72.3617 34.6958C72.3624 34.7117 72.3666 34.7272 72.374 34.7413C72.3814 34.7554 72.3918 34.7677 72.4045 34.7773H72.127C72.1146 34.7542 72.1072 34.7288 72.1051 34.7027C72.1013 34.677 72.099 34.6511 72.0982 34.6251V34.4939C72.0988 34.4398 72.084 34.3866 72.0554 34.3407C72.0163 34.3099 71.9667 34.2957 71.9172 34.3009H71.6506V34.7783H71.394ZM71.6467 34.0881H71.945C71.9956 34.0918 72.0459 34.0777 72.0872 34.0483C72.1172 34.0152 72.1338 33.9722 72.1338 33.9275C72.1338 33.8828 72.1172 33.8398 72.0872 33.8066C72.0698 33.7913 72.0495 33.7796 72.0274 33.7722C72.0054 33.7649 71.9821 33.762 71.9589 33.7639H71.6496L71.6467 34.0881Z" fill="white"/>
</svg>
